<svg width="24" height="24" viewBox="0 0 24 24" fill="none" xmlns="http://www.w3.org/2000/svg">
<path d="M8.00006 10.76H7.42006C6.62856 10.7314 5.83963 10.8658 5.10223 11.1548C4.36482 11.4438 3.69468 11.8812 3.13339 12.44L2.97339 12.6267V18.1467H5.69339V15.0133L6.06006 14.6L6.22672 14.4067C7.09467 13.515 8.17524 12.8589 9.36672 12.5C8.77019 12.0461 8.29971 11.4471 8.00006 10.76Z" fill="white"/>
<path d="M20.8933 12.42C20.332 11.8612 19.6619 11.4238 18.9245 11.1348C18.1871 10.8458 17.3981 10.7114 16.6066 10.74C16.3639 10.7407 16.1213 10.754 15.88 10.78C15.5747 11.4246 15.1171 11.9852 14.5466 12.4133C15.8186 12.7652 16.9709 13.4566 17.88 14.4133L18.0466 14.6L18.4066 15.0133V18.1533H21.0333V12.6067L20.8933 12.42Z" fill="white"/>
<path d="M7.39992 9.46H7.60658C7.51056 8.63549 7.65523 7.80082 8.02314 7.05673C8.39104 6.31263 8.96645 5.69093 9.67992 5.26667C9.42129 4.87157 9.06449 4.5504 8.64445 4.33463C8.22441 4.11886 7.75554 4.01587 7.28374 4.03575C6.81194 4.05563 6.35339 4.1977 5.95299 4.44805C5.5526 4.6984 5.22408 5.04844 4.99962 5.4639C4.77515 5.87936 4.66243 6.34599 4.67249 6.8181C4.68256 7.29021 4.81506 7.75162 5.05702 8.15713C5.29898 8.56265 5.64211 8.89838 6.05281 9.13144C6.46351 9.3645 6.9277 9.4869 7.39992 9.48667V9.46Z" fill="white"/>
<path d="M11.9134 11.9467C13.5592 11.9467 14.8933 10.6125 14.8933 8.96666C14.8933 7.32086 13.5592 5.98666 11.9134 5.98666C10.2675 5.98666 8.93335 7.32086 8.93335 8.96666C8.93335 10.6125 10.2675 11.9467 11.9134 11.9467Z" fill="white"/>
<path d="M12.0734 13.5333C11.2028 13.4982 10.334 13.6395 9.51944 13.9489C8.70485 14.2582 7.96126 14.7291 7.33341 15.3333L7.16675 15.52V19.74C7.16935 19.8775 7.19901 20.0131 7.25402 20.1391C7.30904 20.265 7.38834 20.379 7.4874 20.4743C7.58645 20.5696 7.70332 20.6445 7.83132 20.6947C7.95933 20.7449 8.09596 20.7693 8.23342 20.7667H15.8934C16.0309 20.7693 16.1675 20.7449 16.2955 20.6947C16.4235 20.6445 16.5404 20.5696 16.6394 20.4743C16.7385 20.379 16.8178 20.265 16.8728 20.1391C16.9278 20.0131 16.9575 19.8775 16.9601 19.74V15.5333L16.8001 15.3333C16.1763 14.7273 15.4353 14.255 14.6225 13.9455C13.8097 13.636 12.9423 13.4957 12.0734 13.5333Z" fill="white"/>
<path d="M16.2866 8.96C16.2947 9.11323 16.2947 9.26677 16.2866 9.42C16.4145 9.44028 16.5437 9.45142 16.6732 9.45333H16.7999C17.27 9.42827 17.7257 9.28189 18.1225 9.02845C18.5192 8.77502 18.8436 8.42316 19.0641 8.00714C19.2845 7.59112 19.3935 7.12512 19.3803 6.65449C19.3672 6.18386 19.2324 5.72465 18.9891 5.32157C18.7459 4.91849 18.4023 4.58527 17.9921 4.35435C17.5818 4.12344 17.1187 4.00269 16.6479 4.00388C16.177 4.00506 15.7146 4.12813 15.3054 4.36111C14.8963 4.59409 14.5545 4.92903 14.3132 5.33333C14.9166 5.72729 15.4128 6.26487 15.7572 6.89785C16.1016 7.53082 16.2835 8.2394 16.2866 8.96Z" fill="white"/>
</svg>
