<svg width="24" height="24" viewBox="0 0 24 24" fill="none" xmlns="http://www.w3.org/2000/svg">
<path d="M7.80006 16.5C7.71044 16.5 7.62081 16.5164 7.53531 16.5511C7.04931 16.7484 6.53819 16.875 6.00006 16.875C5.46194 16.875 4.95081 16.7484 4.46444 16.5511C4.37894 16.5164 4.28969 16.5 4.20006 16.5C1.87281 16.5 -0.0123144 18.8662 6.05804e-05 21.7791C0.00531058 23.01 0.814935 24 1.80006 24H10.2001C11.1852 24 11.9948 23.01 12.0001 21.7791C12.0124 18.8662 10.1273 16.5 7.80006 16.5ZM6.00006 15C7.98831 15 9.60006 12.9853 9.60006 10.5C9.60006 8.01469 7.98831 6 6.00006 6C4.01181 6 2.40006 8.01469 2.40006 10.5C2.40006 12.9853 4.01181 15 6.00006 15ZM22.2001 0H7.80006C6.80744 0 6.00006 1.04297 6.00006 2.32453V4.5C6.87831 4.5 7.69131 4.81781 8.40006 5.33438V3H21.6001V16.5H19.2001V13.5H14.4001V16.5H11.5411C12.2573 17.2823 12.7831 18.3155 13.0294 19.5H22.2001C23.1927 19.5 24.0001 18.457 24.0001 17.1755V2.32453C24.0001 1.04297 23.1927 0 22.2001 0Z" fill="#FFFEFE"/>
</svg>
