<svg width="21" height="21" viewBox="0 0 21 21" fill="none" xmlns="http://www.w3.org/2000/svg">
<path d="M5.24782 1.73035H13.1196C13.5835 1.73035 14.0284 1.91265 14.3565 2.23716C14.6845 2.56167 14.8688 3.0018 14.8688 3.46073V5.19111H13.1196V3.46073H5.24782V17.3038H13.1196V15.5734H14.8688V17.3038C14.8688 17.7627 14.6845 18.2028 14.3565 18.5273C14.0284 18.8519 13.5835 19.0342 13.1196 19.0342H5.24782C4.78389 19.0342 4.33895 18.8519 4.0109 18.5273C3.68285 18.2028 3.49855 17.7627 3.49855 17.3038V3.46073C3.49855 3.0018 3.68285 2.56167 4.0109 2.23716C4.33895 1.91265 4.78389 1.73035 5.24782 1.73035V1.73035Z" fill="black"/>
<path d="M14.0729 13.4884L15.3061 14.7083L19.6793 10.3823L15.3061 6.0564L14.0729 7.27632L16.3295 9.51716H7.87173V11.2475H16.3295L14.0729 13.4884Z" fill="black"/>
</svg>
