<svg width="34" height="34" viewBox="0 0 34 34" fill="none" xmlns="http://www.w3.org/2000/svg">
<path fill-rule="evenodd" clip-rule="evenodd" d="M9.1876 26.1069C15.0059 25.2569 19.0119 25.33 24.8378 26.1366C25.2597 26.1978 25.6452 26.4095 25.9232 26.7328C26.2011 27.0561 26.3527 27.469 26.35 27.8953C26.35 28.3033 26.2097 28.6994 25.9564 29.0088C25.5149 29.5482 25.0626 30.0787 24.5998 30.6H26.8447C26.9858 30.4317 27.1277 30.26 27.2714 30.0857C27.7755 29.4674 28.0506 28.6939 28.05 27.8961C28.05 26.1749 26.7937 24.6916 25.0707 24.4536C19.1071 23.6283 14.9387 23.5492 8.94195 24.4256C7.20115 24.6797 5.94995 26.1859 5.94995 27.9191C5.94995 28.6883 6.2007 29.4491 6.67585 30.0653C6.8161 30.2472 6.95465 30.4257 7.09235 30.6008H9.2828C8.85221 30.0853 8.43222 29.561 8.0231 29.0283C7.77997 28.7094 7.64881 28.3192 7.64995 27.9182C7.64995 27.0028 8.30785 26.2352 9.1876 26.1069ZM17 17.85C17.6697 17.85 18.3329 17.7181 18.9516 17.4618C19.5704 17.2055 20.1326 16.8298 20.6062 16.3562C21.0798 15.8826 21.4554 15.3204 21.7117 14.7017C21.968 14.0829 22.1 13.4197 22.1 12.75C22.1 12.0802 21.968 11.417 21.7117 10.7983C21.4554 10.1795 21.0798 9.61731 20.6062 9.14373C20.1326 8.67015 19.5704 8.29449 18.9516 8.03819C18.3329 7.78189 17.6697 7.64997 17 7.64997C15.6473 7.64997 14.3501 8.18729 13.3937 9.14373C12.4373 10.1002 11.9 11.3974 11.9 12.75C11.9 14.1026 12.4373 15.3998 13.3937 16.3562C14.3501 17.3127 15.6473 17.85 17 17.85ZM17 19.55C18.8034 19.55 20.533 18.8335 21.8083 17.5583C23.0835 16.2831 23.8 14.5534 23.8 12.75C23.8 10.9465 23.0835 9.21689 21.8083 7.94165C20.533 6.6664 18.8034 5.94997 17 5.94997C15.1965 5.94997 13.4669 6.6664 12.1916 7.94165C10.9164 9.21689 10.2 10.9465 10.2 12.75C10.2 14.5534 10.9164 16.2831 12.1916 17.5583C13.4669 18.8335 15.1965 19.55 17 19.55Z" fill="white"/>
<path fill-rule="evenodd" clip-rule="evenodd" d="M17 32.3C25.4499 32.3 32.3 25.4499 32.3 17C32.3 8.55015 25.4499 1.7 17 1.7C8.55015 1.7 1.7 8.55015 1.7 17C1.7 25.4499 8.55015 32.3 17 32.3ZM17 34C26.3891 34 34 26.3891 34 17C34 7.6109 26.3891 0 17 0C7.6109 0 0 7.6109 0 17C0 26.3891 7.6109 34 17 34Z" fill="white"/>
</svg>
