<svg width="40" height="40" viewBox="0 0 40 40" fill="none" xmlns="http://www.w3.org/2000/svg">
<g clip-path="url(#clip0_40_14)">
<path d="M36.705 24.9617C35.9245 24.214 35.1647 23.4448 34.4267 22.655C33.8067 22.025 33.4334 21.5667 33.4334 21.5667L28.7667 19.3383C30.635 17.2194 31.6662 14.4916 31.6667 11.6667C31.6667 5.235 26.4334 0 20 0C13.5667 0 8.33337 5.235 8.33337 11.6667C8.33337 18.0983 13.5667 23.3333 20 23.3333C22.9384 23.3333 25.6167 22.2333 27.6717 20.435L29.9 25.1017C29.9 25.1017 30.3584 25.475 30.9884 26.095C31.6334 26.7 32.4817 27.5183 33.295 28.3733L35.5584 30.6933L36.565 31.77L40.1 28.235L39.0234 27.2283C38.3917 26.6083 37.5484 25.785 36.705 24.9617ZM20 20C15.405 20 11.6667 16.2617 11.6667 11.6667C11.6667 7.07167 15.405 3.33333 20 3.33333C24.595 3.33333 28.3334 7.07167 28.3334 11.6667C28.3334 16.2617 24.595 20 20 20Z" fill="black"/>
</g>
<defs>
<clipPath id="clip0_40_14">
<rect width="40" height="40" fill="white"/>
</clipPath>
</defs>
</svg>
