<svg width="28" height="28" viewBox="0 0 28 28" fill="none" xmlns="http://www.w3.org/2000/svg">
<path fill-rule="evenodd" clip-rule="evenodd" d="M6.11899 18.6667V21C6.11899 21.3094 6.24191 21.6062 6.4607 21.825C6.67949 22.0438 6.97624 22.1667 7.28566 22.1667H24.7857C25.0951 22.1667 25.3918 22.0438 25.6106 21.825C25.8294 21.6062 25.9523 21.3094 25.9523 21V11.6667C25.9523 11.3572 25.8294 11.0605 25.6106 10.8417C25.3918 10.6229 25.0951 10.5 24.7857 10.5H23.3332V12.6403C23.493 12.8787 23.7092 13.0741 23.9625 13.2091C24.2159 13.3441 24.4986 13.4146 24.7857 13.4143V19.25C24.3233 19.2526 23.8807 19.4382 23.5546 19.7661C23.2286 20.094 23.0456 20.5376 23.0456 21H9.03274C9.02662 20.5402 8.8399 20.1013 8.51291 19.778C8.18592 19.4547 7.74489 19.273 7.28507 19.2722V18.6667H6.11899Z" fill="white"/>
<path d="M14.5832 11.6666C14.5832 12.2855 14.3373 12.879 13.8998 13.3166C13.4622 13.7541 12.8687 14 12.2498 14C11.631 14 11.0375 13.7541 10.5999 13.3166C10.1623 12.879 9.9165 12.2855 9.9165 11.6666C9.9165 11.0478 10.1623 10.4543 10.5999 10.0167C11.0375 9.57915 11.631 9.33331 12.2498 9.33331C12.8687 9.33331 13.4622 9.57915 13.8998 10.0167C14.3373 10.4543 14.5832 11.0478 14.5832 11.6666Z" fill="white"/>
<path fill-rule="evenodd" clip-rule="evenodd" d="M3.49992 5.83331C3.1905 5.83331 2.89375 5.95623 2.67496 6.17502C2.45617 6.39381 2.33325 6.69056 2.33325 6.99998V16.3333C2.33325 16.6427 2.45617 16.9395 2.67496 17.1583C2.89375 17.3771 3.1905 17.5 3.49992 17.5H20.9999C21.3093 17.5 21.6061 17.3771 21.8249 17.1583C22.0437 16.9395 22.1666 16.6427 22.1666 16.3333V6.99998C22.1666 6.69056 22.0437 6.39381 21.8249 6.17502C21.6061 5.95623 21.3093 5.83331 20.9999 5.83331H3.49992ZM5.24875 6.99998H19.2505C19.251 7.46365 19.4355 7.90817 19.7635 8.23587C20.0915 8.56357 20.5362 8.74765 20.9999 8.74765V14.5833C20.5374 14.5856 20.0947 14.7711 19.7685 15.099C19.4424 15.427 19.2595 15.8708 19.2598 16.3333H5.24759C5.24176 15.8734 5.05514 15.4343 4.72808 15.111C4.40103 14.7877 3.95983 14.6061 3.49992 14.6055V8.74998C3.72968 8.74998 3.95718 8.70471 4.16944 8.61675C4.38169 8.52879 4.57453 8.39986 4.73694 8.23735C4.89935 8.07483 5.02815 7.8819 5.11596 7.66959C5.20378 7.45727 5.24891 7.22974 5.24875 6.99998Z" fill="white"/>
</svg>
