<svg width="24" height="16" viewBox="0 0 24 16" fill="none" xmlns="http://www.w3.org/2000/svg">
<path d="M20.4 5.686H19.8L15.7208 0.85361C15.4958 0.587287 15.2106 0.372294 14.8862 0.224537C14.5618 0.0767809 14.2064 4.26484e-05 13.8465 0H5.82488C4.8435 0 3.96113 0.566112 3.59663 1.42967L1.8 5.76631C0.7665 6.02005 0 6.90173 0 7.9604V11.9406C0 12.2547 0.2685 12.5092 0.6 12.5092H2.4C2.4 14.3934 4.01175 15.9208 6 15.9208C7.98825 15.9208 9.6 14.3934 9.6 12.5092H14.4C14.4 14.3934 16.0118 15.9208 18 15.9208C19.9883 15.9208 21.6 14.3934 21.6 12.5092H23.4C23.7315 12.5092 24 12.2547 24 11.9406V9.0976C24 7.2134 22.3883 5.686 20.4 5.686ZM6 14.215C5.00738 14.215 4.2 13.4499 4.2 12.5092C4.2 11.5685 5.00738 10.8034 6 10.8034C6.99263 10.8034 7.8 11.5685 7.8 12.5092C7.8 13.4499 6.99263 14.215 6 14.215ZM8.7 5.686H4.38488L5.82488 2.2744H8.7V5.686ZM10.5 5.686V2.2744H13.8465L16.7265 5.686H10.5ZM18 14.215C17.0074 14.215 16.2 13.4499 16.2 12.5092C16.2 11.5685 17.0074 10.8034 18 10.8034C18.9926 10.8034 19.8 11.5685 19.8 12.5092C19.8 13.4499 18.9926 14.215 18 14.215Z" fill="white"/>
</svg>
